<svg width="24" height="24" viewBox="0 0 24 24" fill="none" xmlns="http://www.w3.org/2000/svg">
<path d="M1.95279 12.9403C1.72003 13.1505 1.41767 13.2422 0.93902 13.2422H0.740208V10.7308H0.93902C1.41767 10.7308 1.70813 10.8164 1.95279 11.0379C2.20898 11.2661 2.36311 11.6195 2.36311 11.9834C2.36311 12.3479 2.20898 12.7123 1.95279 12.9403ZM1.08741 10.0873H0V13.8851H1.08167C1.65687 13.8851 2.07218 13.7494 2.43676 13.4467C2.86998 13.0882 3.12617 12.5478 3.12617 11.9888C3.12617 10.8681 2.2888 10.0873 1.08741 10.0873Z" fill="#64748B"/>
<path d="M3.46706 13.8851H4.20785V10.0873H3.46706V13.8851Z" fill="#64748B"/>
<path d="M6.01921 11.5447C5.57468 11.3802 5.44413 11.2717 5.44413 11.0665C5.44413 10.8273 5.67669 10.6456 5.99599 10.6456C6.21797 10.6456 6.40037 10.7367 6.59339 10.9531L6.98097 10.4456C6.66246 10.167 6.28136 10.0245 5.86497 10.0245C5.19304 10.0245 4.68049 10.4912 4.68049 11.1127C4.68049 11.636 4.91915 11.9038 5.6149 12.1542C5.90488 12.2565 6.05246 12.3247 6.12696 12.3705C6.27498 12.4672 6.34909 12.604 6.34909 12.7635C6.34909 13.0712 6.10443 13.2992 5.77391 13.2992C5.42059 13.2992 5.13598 13.1225 4.96543 12.7927L4.48683 13.2535C4.82814 13.7545 5.23805 13.9765 5.8017 13.9765C6.57156 13.9765 7.11157 13.4646 7.11157 12.7294C7.11157 12.126 6.8619 11.8529 6.01921 11.5447Z" fill="#64748B"/>
<path d="M7.34528 11.9888C7.34528 13.1052 8.22183 13.9708 9.34988 13.9708C9.66876 13.9708 9.94185 13.9081 10.2786 13.7494V12.8774C9.9825 13.1738 9.7202 13.2933 9.3843 13.2933C8.63826 13.2933 8.10871 12.7524 8.10871 11.9834C8.10871 11.2542 8.65499 10.679 9.34988 10.679C9.7032 10.679 9.97065 10.8051 10.2786 11.1064V10.2348C9.95349 10.0698 9.68609 10.0015 9.36736 10.0015C8.24505 10.0015 7.34528 10.8846 7.34528 11.9888Z" fill="#64748B"/>
<path d="M16.1523 12.6381L15.1396 10.0872H14.3303L15.9419 13.9824H16.3406L17.9813 10.0872H17.1783L16.1523 12.6381Z" fill="#64748B"/>
<path d="M18.3163 13.8849H20.4172V13.242H19.0565V12.2169H20.367V11.5736H19.0565V10.7306H20.4172V10.0872H18.3163V13.8849Z" fill="#64748B"/>
<path d="M21.8641 11.8356H21.6477V10.6853H21.8758C22.3371 10.6853 22.5879 10.8786 22.5879 11.2483C22.5879 11.6301 22.3371 11.8356 21.8641 11.8356ZM23.3503 11.2084C23.3503 10.4974 22.8605 10.0872 22.0062 10.0872H20.9078V13.8849H21.6477V12.3593H21.7442L22.7696 13.8849H23.6807L22.4851 12.285C23.043 12.1715 23.3503 11.7899 23.3503 11.2084Z" fill="#64748B"/>
<path d="M23.6827 10.2754H23.6692V10.1882H23.6835C23.723 10.1882 23.7434 10.2024 23.7434 10.2311C23.7434 10.2607 23.7227 10.2754 23.6827 10.2754ZM23.8231 10.2299C23.8231 10.1633 23.7772 10.1269 23.6967 10.1269H23.5895V10.4608H23.6692V10.3313L23.7627 10.4608H23.8599L23.7502 10.3231C23.7971 10.3105 23.8231 10.2762 23.8231 10.2299Z" fill="#64748B"/>
<path d="M23.7117 10.5322C23.5841 10.5322 23.4798 10.4261 23.4798 10.2936C23.4798 10.1607 23.5827 10.0546 23.7117 10.0546C23.8386 10.0546 23.9421 10.1631 23.9421 10.2936C23.9421 10.425 23.8386 10.5322 23.7117 10.5322ZM23.7128 10.0022C23.5506 10.0022 23.422 10.1316 23.422 10.2932C23.422 10.4547 23.5521 10.5842 23.7128 10.5842C23.8707 10.5842 24 10.4533 24 10.2932C24 10.1339 23.8707 10.0022 23.7128 10.0022Z" fill="#64748B"/>
<circle cx="12.5331" cy="11.986" r="2.06195" fill="#94A3B8"/>
<path d="M11.013 13.3792C10.867 13.0822 10.785 12.7481 10.785 12.3948C10.785 11.161 11.7851 10.1609 13.0189 10.1609C13.2368 10.1609 13.4475 10.1921 13.6467 10.2503C13.3255 10.0438 12.9433 9.92407 12.5331 9.92407C11.3944 9.92407 10.4712 10.8472 10.4712 11.986C10.4712 12.5231 10.6766 13.0123 11.013 13.3792Z" fill="#64748B"/>
</svg>
