<svg width="24" height="24" viewBox="0 0 24 24" fill="none" xmlns="http://www.w3.org/2000/svg">
<path d="M23.92 17.7396C23.92 19.7797 22.2588 21.441 20.2187 21.441H0.0800171V6.7814C0.0800171 4.7413 1.74124 3.08008 3.78134 3.08008H23.92V17.7396Z" fill="white"/>
<path d="M17.3625 13.98H18.8926C18.9363 13.98 19.0383 13.9654 19.082 13.9654C19.3734 13.9071 19.6212 13.6448 19.6212 13.2805C19.6212 12.9308 19.3734 12.6685 19.082 12.5956C19.0383 12.5811 18.9509 12.5811 18.8926 12.5811H17.3625V13.98Z" fill="#94A3B8"/>
<path d="M18.7177 4.3186C17.2605 4.3186 16.0656 5.49895 16.0656 6.97073V9.72486H19.8106C19.8981 9.72486 20.0001 9.72486 20.0729 9.73944C20.9181 9.78315 21.5447 10.2203 21.5447 10.9781C21.5447 11.5755 21.1221 12.0855 20.3352 12.1876V12.2167C21.195 12.275 21.8507 12.7559 21.8507 13.499C21.8507 14.3005 21.1221 14.8251 20.1604 14.8251H16.051V20.2168H19.9418C21.399 20.2168 22.5939 19.0365 22.5939 17.5647V4.3186H18.7177Z" fill="#94A3B8"/>
<path d="M19.4317 11.1529C19.4317 10.8032 19.184 10.57 18.8926 10.5263C18.8634 10.5263 18.7906 10.5117 18.7468 10.5117H17.3625V11.7941H18.7468C18.7906 11.7941 18.878 11.7941 18.8926 11.7795C19.184 11.7358 19.4317 11.5026 19.4317 11.1529Z" fill="#94A3B8"/>
<path d="M4.05818 4.3186C2.60097 4.3186 1.40605 5.49895 1.40605 6.97073V13.5136C2.14923 13.8779 2.92155 14.1111 3.69388 14.1111C4.61192 14.1111 5.10737 13.5573 5.10737 12.7996V9.71029H7.38062V12.785C7.38062 13.9799 6.63745 14.9563 4.11647 14.9563C2.58639 14.9563 1.39148 14.6211 1.39148 14.6211V20.2022H5.28224C6.73945 20.2022 7.93437 19.0219 7.93437 17.5501V4.3186H4.05818Z" fill="#94A3B8"/>
<path d="M11.388 4.3186C9.93076 4.3186 8.73584 5.49895 8.73584 6.97073V10.4389C9.40616 9.87058 10.5719 9.50628 12.4517 9.59371C13.4572 9.63743 14.5356 9.9143 14.5356 9.9143V11.0364C13.9964 10.7595 13.3552 10.5118 12.5246 10.4535C11.0965 10.3515 10.2368 11.0509 10.2368 12.275C10.2368 13.5136 11.0965 14.2131 12.5246 14.0965C13.3552 14.0382 13.9964 13.7759 14.5356 13.5136V14.6357C14.5356 14.6357 13.4718 14.9125 12.4517 14.9563C10.5719 15.0437 9.40616 14.6794 8.73584 14.1111V20.2314H12.6266C14.0838 20.2314 15.2787 19.051 15.2787 17.5792V4.3186H11.388Z" fill="#94A3B8"/>
</svg>
