<svg width="24" height="24" viewBox="0 0 24 24" fill="none" xmlns="http://www.w3.org/2000/svg">
<path d="M17.2941 5.07349C20.9972 5.07349 24 8.0756 24 11.7794C24 15.4831 20.9972 18.4853 17.2941 18.4853C15.1419 18.4853 13.226 17.4716 12 15.8954C12.8852 14.7589 13.4118 13.331 13.4118 11.7794C13.4118 10.2278 12.8852 8.79984 12 7.66337C13.226 6.08713 15.1419 5.07349 17.2941 5.07349Z" fill="#F79F1A"/>
<path d="M12 7.66357C12.8852 8.80004 13.4118 10.228 13.4118 11.7796C13.4118 13.3311 12.8852 14.7591 12 15.8956C11.1148 14.7591 10.5883 13.3312 10.5883 11.7796C10.5883 10.228 11.1148 8.80004 12 7.66357Z" fill="#FF5F01"/>
<path d="M6.70588 5.07349C8.85812 5.07349 10.7739 6.08713 12 7.66337C11.1148 8.79984 10.5882 10.2278 10.5882 11.7794C10.5882 13.3309 11.1148 14.7589 12 15.8954C10.7739 17.4716 8.85812 18.4853 6.70588 18.4853C3.00212 18.4853 0 15.4831 0 11.7794C0 8.0756 3.00212 5.07349 6.70588 5.07349Z" fill="#EA001B"/>
<path d="M22.5135 11.3813C22.0512 10.7669 20.8279 11.0938 20.8279 12.1649C20.8279 13.2586 22.0963 13.5517 22.5135 12.9485V13.2078H22.9588V10.2935H22.5135V11.3813ZM21.9159 12.8244C21.5326 12.8244 21.2845 12.5313 21.2845 12.1649C21.2845 11.7984 21.5326 11.5054 21.9159 11.5054C22.288 11.5054 22.5473 11.7983 22.5473 12.1649C22.5473 12.5483 22.288 12.8244 21.9159 12.8244Z" fill="black"/>
<path d="M5.62426 11.3813C5.47207 11.1952 5.25791 11.0768 4.96468 11.0768C4.38402 11.0768 3.93875 11.5391 3.93875 12.1648C3.93875 12.7962 4.38409 13.2529 4.96468 13.2529C5.25791 13.2529 5.47207 13.1457 5.62426 12.9484V13.2077H6.06967V11.1332H5.62426V11.3813ZM5.02673 12.8244C4.62642 12.8244 4.39539 12.5313 4.39539 12.1649C4.39539 11.7984 4.62642 11.5054 5.02673 11.5054C5.39308 11.5054 5.63555 11.7983 5.64113 12.1649C5.64113 12.5483 5.39315 12.8244 5.02673 12.8244Z" fill="black"/>
<path d="M11.6673 11.0712C11.0699 11.0712 10.6414 11.5166 10.6414 12.1592C10.6414 13.3149 11.9154 13.5066 12.5468 12.9597L12.3326 12.6215C11.8929 12.9823 11.2276 12.9485 11.0981 12.3453H12.6483C12.6483 11.432 12.2311 11.0712 11.6673 11.0712ZM11.1149 11.9789C11.1601 11.6857 11.346 11.4885 11.6504 11.4885C11.9434 11.4885 12.1409 11.6575 12.1916 11.9789H11.1149Z" fill="black"/>
<path d="M18.325 11.3813C17.857 10.7612 16.6393 11.1106 16.6393 12.1649C16.6393 13.2472 17.9022 13.5572 18.325 12.9485V13.2078H18.7873V11.1332H18.325V11.3813ZM17.7274 12.8244C17.3441 12.8244 17.113 12.5313 17.113 12.1649C17.113 11.7984 17.3441 11.5054 17.7274 11.5054C18.1107 11.5054 18.3587 11.7983 18.3587 12.1649C18.3587 12.5483 18.1106 12.8244 17.7274 12.8244Z" fill="black"/>
<path d="M2.7099 11.077C2.45056 11.077 2.17442 11.1559 1.98828 11.4432C1.85296 11.2123 1.62192 11.077 1.30053 11.077C1.0863 11.077 0.872134 11.1559 0.703075 11.3814V11.1333H0.240723V13.2022H0.703005C0.703005 12.1368 0.56204 11.4999 1.21032 11.4999C1.78533 11.4999 1.6726 12.0748 1.6726 13.2022H2.11795C2.11795 12.1707 1.97698 11.4999 2.62526 11.4999C3.20028 11.4999 3.08755 12.0635 3.08755 13.2022H3.54976V11.9057H3.53846C3.53846 11.415 3.21729 11.0938 2.7099 11.077Z" fill="black"/>
<path d="M7.06181 11.7195C7.06181 11.3981 7.73261 11.4489 8.10461 11.6575L8.29068 11.2911C7.76078 10.9472 6.58824 10.9529 6.58824 11.7534C6.58824 12.5595 7.87916 12.2213 7.87916 12.599C7.87916 12.9541 7.11814 12.9259 6.71233 12.6441L6.51497 12.9993C7.14631 13.4276 8.35259 13.3376 8.35259 12.5764C8.35266 11.7309 7.06181 12.1141 7.06181 11.7195Z" fill="black"/>
<path d="M9.53662 12.4861V11.5504H10.275V11.1332H9.53662V10.502H9.07434V11.1332H8.64587V11.5447H9.07434V12.4861C9.07434 13.4785 10.0495 13.2979 10.3482 13.1007L10.2242 12.7173C10.0101 12.8356 9.53662 12.9653 9.53662 12.4861Z" fill="black"/>
<path d="M13.5729 11.3813V11.1332H13.1105V13.2022H13.5729V12.0353C13.5729 11.3813 14.1084 11.4659 14.2944 11.5618L14.4296 11.1333C14.1704 11.0206 13.7758 11.0318 13.5729 11.3813Z" fill="black"/>
<path d="M16.194 11.6914L16.4081 11.325C15.7543 10.812 14.565 11.0939 14.565 12.1706C14.565 13.2868 15.8276 13.5122 16.4081 13.0161L16.194 12.6498C15.6753 13.0161 15.0271 12.7964 15.0271 12.165C15.0271 11.5223 15.681 11.3136 16.194 11.6914Z" fill="black"/>
<path d="M19.83 11.3813V11.1332H19.3847V13.2021H19.83V12.0352C19.83 11.415 20.3374 11.4546 20.5517 11.5617L20.687 11.1333C20.5516 11.0656 20.0668 10.9698 19.83 11.3813Z" fill="black"/>
<path d="M23.7424 12.9485C23.7254 12.9316 23.7141 12.9033 23.6972 12.8864C23.6803 12.8696 23.652 12.8584 23.6352 12.8413C23.6071 12.8413 23.5732 12.8244 23.5449 12.8244C23.5281 12.8244 23.4998 12.8413 23.4662 12.8413C23.4379 12.8583 23.4209 12.8695 23.4041 12.8864C23.376 12.9033 23.359 12.9316 23.359 12.9485C23.3421 12.9766 23.3421 13.0106 23.3421 13.0387C23.3421 13.0556 23.3421 13.0838 23.359 13.1175C23.359 13.1344 23.3759 13.1627 23.4041 13.1796C23.4209 13.1965 23.4324 13.2078 23.4662 13.2247C23.4943 13.2416 23.5281 13.2416 23.5449 13.2416C23.5732 13.2416 23.6071 13.2416 23.6352 13.2247C23.652 13.2078 23.6803 13.1965 23.6972 13.1796C23.7141 13.1626 23.7254 13.1344 23.7424 13.1175C23.7593 13.0837 23.7593 13.0556 23.7593 13.0387C23.7593 13.0105 23.7593 12.9766 23.7424 12.9485Z" fill="black"/>
</svg>
