<svg width="45" height="12" viewBox="0 0 45 12" fill="none" xmlns="http://www.w3.org/2000/svg">
<path d="M16.7701 2.4541H14.2882C14.1184 2.4541 13.9739 2.57774 13.9474 2.74574L12.9436 9.12283C12.9237 9.24865 13.0209 9.3621 13.1483 9.3621H14.3332C14.503 9.3621 14.6475 9.23847 14.674 9.0701L14.9447 7.3501C14.9708 7.18174 15.1156 7.0581 15.2851 7.0581H16.0708C17.7057 7.0581 18.6492 6.26537 18.8956 4.69447C19.0067 4.00719 18.9003 3.46719 18.5792 3.08901C18.2264 2.67374 17.6008 2.4541 16.7701 2.4541ZM17.0564 4.78319C16.9207 5.67556 16.2403 5.67556 15.5823 5.67556H15.2078L15.4705 4.00901C15.4861 3.90828 15.5732 3.8341 15.6749 3.8341H15.8465C16.2947 3.8341 16.7175 3.8341 16.9359 4.0901C17.0662 4.24283 17.1061 4.46974 17.0564 4.78319Z" fill="#253B80"/>
<path d="M24.189 4.75458H23.0005C22.8992 4.75458 22.8118 4.82876 22.7962 4.92949L22.7435 5.26258L22.6604 5.14185C22.4031 4.76767 21.8294 4.64258 21.2567 4.64258C19.9434 4.64258 18.8216 5.63931 18.6032 7.03749C18.4896 7.73494 18.6511 8.40185 19.0459 8.86694C19.4081 9.29458 19.9263 9.47276 20.5429 9.47276C21.6011 9.47276 22.1879 8.79094 22.1879 8.79094L22.135 9.12185C22.115 9.2484 22.2123 9.36185 22.3389 9.36185H23.4095C23.5797 9.36185 23.7234 9.23821 23.7502 9.06985L24.3926 4.99385C24.4129 4.8684 24.316 4.75458 24.189 4.75458ZM22.5323 7.0724C22.4177 7.75276 21.8787 8.20949 21.1914 8.20949C20.8463 8.20949 20.5705 8.09858 20.3934 7.8884C20.2177 7.67967 20.151 7.38258 20.2069 7.05167C20.3139 6.37712 20.8619 5.90549 21.5387 5.90549C21.8762 5.90549 22.1506 6.01785 22.3313 6.22985C22.5124 6.44403 22.5842 6.74294 22.5323 7.0724Z" fill="#253B80"/>
<path d="M30.5187 4.75464H29.3244C29.2105 4.75464 29.1034 4.81137 29.0388 4.90627L27.3916 7.33755L26.6934 5.00118C26.6495 4.855 26.5148 4.75464 26.3624 4.75464H25.1888C25.0461 4.75464 24.9471 4.89428 24.9924 5.02882L26.308 8.89718L25.0712 10.6466C24.9739 10.7845 25.0719 10.9739 25.2399 10.9739H26.4328C26.546 10.9739 26.652 10.9186 26.7162 10.8255L30.6886 5.08009C30.7836 4.94264 30.686 4.75464 30.5187 4.75464Z" fill="#253B80"/>
<path d="M34.4729 2.4541H31.9906C31.8211 2.4541 31.6767 2.57774 31.6502 2.74574L30.6464 9.12283C30.6264 9.24865 30.7237 9.3621 30.8504 9.3621H32.1241C32.2425 9.3621 32.3437 9.27556 32.3622 9.15774L32.6471 7.3501C32.6732 7.18174 32.818 7.0581 32.9875 7.0581H33.7728C35.4081 7.0581 36.3512 6.26537 36.598 4.69447C36.7094 4.00719 36.6024 3.46719 36.2812 3.08901C35.9288 2.67374 35.3035 2.4541 34.4729 2.4541ZM34.7592 4.78319C34.6238 5.67556 33.9434 5.67556 33.2851 5.67556H32.9109L33.174 4.00901C33.1896 3.90828 33.276 3.8341 33.378 3.8341H33.5496C33.9975 3.8341 34.4206 3.8341 34.6391 4.0901C34.7693 4.24283 34.8089 4.46974 34.7592 4.78319Z" fill="#179BD7"/>
<path d="M41.8914 4.75458H40.7036C40.6017 4.75458 40.5149 4.82876 40.4997 4.92949L40.4471 5.26258L40.3636 5.14185C40.1063 4.76767 39.5329 4.64258 38.9602 4.64258C37.6469 4.64258 36.5255 5.63931 36.3071 7.03749C36.1938 7.73494 36.3546 8.40185 36.7494 8.86694C37.1123 9.29458 37.6298 9.47276 38.2464 9.47276C39.3046 9.47276 39.8915 8.79094 39.8915 8.79094L39.8385 9.12185C39.8185 9.2484 39.9158 9.36185 40.0432 9.36185H41.1134C41.2828 9.36185 41.4273 9.23821 41.4538 9.06985L42.0965 4.99385C42.1161 4.8684 42.0188 4.75458 41.8914 4.75458ZM40.2348 7.0724C40.1208 7.75276 39.5812 8.20949 38.8938 8.20949C38.5494 8.20949 38.2729 8.09858 38.0958 7.8884C37.9202 7.67967 37.8541 7.38258 37.9093 7.05167C38.0171 6.37712 38.5643 5.90549 39.2411 5.90549C39.5786 5.90549 39.853 6.01785 40.0337 6.22985C40.2155 6.44403 40.2874 6.74294 40.2348 7.0724Z" fill="#179BD7"/>
<path d="M43.2925 2.62913L42.2738 9.12295C42.2539 9.24877 42.3511 9.36222 42.4778 9.36222H43.5019C43.6721 9.36222 43.8165 9.23858 43.8427 9.07022L44.8472 2.69349C44.8672 2.56768 44.7699 2.45386 44.6432 2.45386H43.4965C43.3952 2.45422 43.3081 2.5284 43.2925 2.62913Z" fill="#179BD7"/>
<path d="M2.63682 10.6014L2.82662 9.39341L2.40384 9.38359H0.38501L1.78799 0.469769C1.79235 0.44286 1.8065 0.417769 1.82719 0.399951C1.84787 0.382133 1.87436 0.372314 1.90195 0.372314H5.30598C6.43606 0.372314 7.21594 0.607951 7.62311 1.07304C7.814 1.29122 7.93557 1.51922 7.99436 1.77013C8.05606 2.03341 8.05715 2.34795 7.9969 2.73159L7.99255 2.75959V3.00541L8.18344 3.11377C8.3442 3.19922 8.47194 3.29704 8.56993 3.40904C8.73324 3.59559 8.83884 3.83268 8.88348 4.11377C8.92957 4.40286 8.91432 4.74686 8.83884 5.13631C8.75174 5.58431 8.61094 5.9745 8.42078 6.29377C8.24586 6.58795 8.02303 6.83195 7.75848 7.02104C7.5059 7.20068 7.20578 7.33704 6.86646 7.42431C6.53767 7.51013 6.16279 7.55341 5.75162 7.55341H5.4867C5.29727 7.55341 5.11328 7.62177 4.96884 7.74432C4.82404 7.86941 4.72824 8.04031 4.69884 8.22722L4.67888 8.33595L4.34356 10.465L4.32832 10.5432C4.32432 10.568 4.31743 10.5803 4.30727 10.5887C4.2982 10.5963 4.28513 10.6014 4.27243 10.6014H2.63682Z" fill="#253B80"/>
<path d="M8.36416 2.78809C8.35399 2.85318 8.34238 2.91972 8.32932 2.98809C7.8804 5.29754 6.3446 6.09536 4.38311 6.09536H3.3844C3.14452 6.09536 2.94238 6.2699 2.905 6.50699L2.39367 9.75645L2.24887 10.6775C2.22456 10.8332 2.34432 10.9735 2.50109 10.9735H4.27242C4.48218 10.9735 4.66036 10.8208 4.69339 10.6135L4.71081 10.5234L5.04432 8.40263L5.06573 8.28627C5.09839 8.07827 5.27694 7.92554 5.4867 7.92554H5.75161C7.46778 7.92554 8.81125 7.22736 9.20391 5.207C9.36795 4.363 9.28303 3.65827 8.84899 3.16263C8.71762 3.01318 8.55468 2.88918 8.36416 2.78809Z" fill="#179BD7"/>
<path d="M7.89459 2.60042C7.826 2.58042 7.75523 2.56224 7.68265 2.54587C7.60971 2.52987 7.53495 2.51569 7.45801 2.50333C7.18874 2.45969 6.8937 2.43896 6.57761 2.43896H3.90955C3.84386 2.43896 3.78144 2.45387 3.72555 2.48078C3.60253 2.54006 3.51108 2.65678 3.48894 2.79969L2.92136 6.40187L2.90503 6.50696C2.94241 6.26987 3.14455 6.09533 3.38442 6.09533H4.38313C6.34463 6.09533 7.88043 5.29715 8.32934 2.98806C8.34277 2.91969 8.35402 2.85315 8.36418 2.78806C8.25059 2.72769 8.12757 2.67606 7.99511 2.63206C7.96245 2.62115 7.9287 2.6106 7.89459 2.60042Z" fill="#222D65"/>
<path d="M3.48895 2.79964C3.51109 2.65673 3.60254 2.54 3.72556 2.48109C3.78181 2.45418 3.84387 2.43927 3.90955 2.43927H6.57762C6.89371 2.43927 7.18875 2.46 7.45802 2.50364C7.53496 2.516 7.60971 2.53018 7.68266 2.54618C7.75524 2.56255 7.826 2.58073 7.89459 2.60073C7.92871 2.61091 7.96246 2.62145 7.99548 2.632C8.12794 2.676 8.25096 2.728 8.36455 2.788C8.4981 1.93455 8.36346 1.35345 7.90294 0.827273C7.39524 0.248 6.47891 0 5.30637 0H1.90233C1.66282 0 1.4585 0.174545 1.42149 0.412L0.00362498 9.41746C-0.0243186 9.59564 0.112859 9.75636 0.292133 9.75636H2.39371L2.92137 6.40182L3.48895 2.79964Z" fill="#253B80"/>
</svg>
