<svg width="24" height="24" viewBox="0 0 24 24" fill="none" xmlns="http://www.w3.org/2000/svg">
<path d="M4.69138 4H10.6706C11.5053 4 12.0244 4.68031 11.8297 5.51773L9.04592 17.4695C8.84947 18.304 8.0138 18.9849 7.17857 18.9849H1.19991C0.366426 18.9849 -0.153863 18.304 0.0408444 17.4695L2.82577 5.51773C3.02048 4.68031 3.85571 4 4.69138 4Z" fill="#94A3B8"/>
<path d="M10.1731 4H17.0491C17.8836 4 17.5073 4.68031 17.311 5.51773L14.5277 17.4695C14.3324 18.304 14.3933 18.9849 13.557 18.9849H6.68107C5.84482 18.9849 5.3273 18.304 5.52375 17.4695L8.30693 5.51773C8.50456 4.68031 9.33804 4 10.1731 4Z" fill="#64748B"/>
<path d="M16.7764 4H22.7556C23.5914 4 24.1105 4.68031 23.9142 5.51773L21.1309 17.4695C20.9344 18.304 20.0982 18.9849 19.2625 18.9849H13.2861C12.4498 18.9849 11.9311 18.304 12.127 17.4695L14.9108 5.51773C15.1055 4.68031 15.9401 4 16.7764 4Z" fill="#94A3B8"/>
<path d="M6.25296 7.83018C5.63808 7.83645 5.45649 7.83018 5.39849 7.81649C5.37619 7.92244 4.96127 9.83643 4.9601 9.83803C4.87077 10.2253 4.80577 10.5013 4.58497 10.6795C4.45964 10.7832 4.31331 10.8331 4.14367 10.8331C3.871 10.8331 3.71214 10.6978 3.68547 10.441L3.68037 10.3528C3.68037 10.3528 3.76344 9.8341 3.76344 9.83118C3.76344 9.83118 4.19891 8.08698 4.27688 7.85642C4.28096 7.8433 4.28213 7.83645 4.28315 7.83018C3.43553 7.83762 3.28527 7.83018 3.27492 7.81649C3.26924 7.83529 3.24825 7.94342 3.24825 7.94342L2.8036 9.9093L2.76542 10.076L2.69153 10.6214C2.69153 10.7832 2.7233 10.9152 2.78655 11.0268C2.98913 11.3808 3.56698 11.4339 3.89388 11.4339C4.31506 11.4339 4.71016 11.3444 4.97716 11.181C5.44061 10.9072 5.56186 10.4791 5.67 10.0988L5.72013 9.90362C5.72013 9.90362 6.16872 8.09208 6.24494 7.85642C6.24786 7.8433 6.24902 7.83645 6.25296 7.83018ZM7.77924 9.29157C7.6711 9.29157 7.47348 9.3178 7.29597 9.40481C7.23155 9.43789 7.17063 9.47608 7.10636 9.51411L7.16437 9.30469L7.1326 9.26942C6.75615 9.34564 6.67191 9.35584 6.32418 9.40481L6.29503 9.42419C6.25466 9.75896 6.21881 10.0106 6.06914 10.6687C6.01215 10.9112 5.95298 11.156 5.89367 11.3979L5.9097 11.4287C6.26603 11.4099 6.37417 11.4099 6.68386 11.415L6.70893 11.3877C6.74828 11.1862 6.75338 11.139 6.84053 10.7307C6.88149 10.5372 6.96689 10.1119 7.00901 9.96051C7.0864 9.92466 7.16276 9.88939 7.23563 9.88939C7.40921 9.88939 7.38808 10.0408 7.38137 10.1012C7.37394 10.2024 7.31069 10.5333 7.24584 10.8173L7.20255 11.0007C7.17238 11.136 7.1393 11.2676 7.10913 11.4019L7.12225 11.4287C7.47348 11.4099 7.5806 11.4099 7.88053 11.415L7.9158 11.3877C7.97001 11.0729 7.9859 10.9887 8.08209 10.5304L8.13047 10.3198C8.22447 9.90761 8.27169 9.69862 8.20057 9.5284C8.12537 9.33762 7.94495 9.29157 7.77924 9.29157ZM9.48427 9.72309C9.29758 9.75894 9.17851 9.78284 9.06017 9.79829C8.94285 9.81709 8.82845 9.83414 8.64802 9.85921L8.63374 9.87218L8.62062 9.88253C8.60182 10.0169 8.58871 10.1331 8.56378 10.2696C8.54265 10.4108 8.51015 10.5713 8.45725 10.8019C8.4163 10.9783 8.39516 11.0398 8.37185 11.1019C8.34911 11.164 8.32404 11.2243 8.27799 11.3979L8.28877 11.414L8.29781 11.4287C8.46643 11.4207 8.57675 11.415 8.69014 11.414C8.80338 11.4099 8.9207 11.414 9.10229 11.415L9.11818 11.402L9.13523 11.3877C9.16146 11.2312 9.1654 11.1891 9.18143 11.1127C9.19731 11.0308 9.22471 10.9174 9.2919 10.6146C9.32367 10.4723 9.35908 10.3305 9.39202 10.1854C9.42627 10.0408 9.46212 9.89841 9.49622 9.75617L9.49112 9.73898L9.48427 9.72309ZM9.48825 9.14127C9.31861 9.04115 9.02087 9.07292 8.82047 9.21122C8.62067 9.34676 8.59793 9.53914 8.76699 9.64057C8.93371 9.73793 9.23262 9.70892 9.43127 9.56945C9.63064 9.431 9.65556 9.24037 9.48825 9.14127ZM10.5142 11.4601C10.8574 11.4601 11.2092 11.3655 11.474 11.0848C11.6778 10.8571 11.7712 10.5184 11.8035 10.379C11.9089 9.91668 11.8269 9.70084 11.7238 9.56938C11.5673 9.36899 11.2907 9.30472 11.0037 9.30472C10.8312 9.30472 10.4202 9.32177 10.0991 9.61776C9.86856 9.83127 9.76202 10.121 9.69775 10.3988C9.6329 10.6818 9.55828 11.1913 10.0268 11.3809C10.1714 11.443 10.3798 11.4601 10.5142 11.4601ZM10.4874 10.4199C10.5665 10.0698 10.6599 9.77604 10.8984 9.77604C11.0852 9.77604 11.0987 9.99465 11.0157 10.3459C11.0008 10.4238 10.9326 10.7137 10.8403 10.8372C10.7759 10.9283 10.6997 10.9835 10.6155 10.9835C10.5904 10.9835 10.4413 10.9835 10.439 10.7621C10.4378 10.6528 10.4601 10.5412 10.4874 10.4199ZM12.6615 11.415L12.6883 11.3878C12.7264 11.1862 12.7326 11.1389 12.8169 10.7308C12.859 10.5372 12.9461 10.112 12.9871 9.96056C13.0646 9.92456 13.1397 9.88929 13.2149 9.88929C13.3873 9.88929 13.3663 10.0407 13.3594 10.1011C13.3532 10.2025 13.2899 10.5332 13.2239 10.8172L13.183 11.0006C13.1516 11.1361 13.1175 11.2675 13.0874 11.4019L13.1005 11.4287C13.4529 11.4099 13.5559 11.4099 13.8576 11.415L13.894 11.3878C13.9469 11.0728 13.9612 10.9886 14.0603 10.5304L14.1075 10.3197C14.202 9.90751 14.2498 9.69866 14.1798 9.52844C14.1024 9.33767 13.9208 9.29161 13.7575 9.29161C13.6492 9.29161 13.4505 9.3177 13.274 9.40485C13.2109 9.43794 13.1477 9.47597 13.0856 9.51416L13.1397 9.30473L13.1107 9.26932C12.7344 9.34568 12.6484 9.35589 12.3011 9.40485L12.2744 9.42424C12.2323 9.759 12.1981 10.0105 12.0484 10.6687C11.9914 10.9112 11.9322 11.1561 11.8731 11.398L11.8889 11.4287C12.2459 11.4099 12.3524 11.4099 12.6615 11.415ZM15.2506 11.4287C15.2728 11.3205 15.4044 10.6796 15.4056 10.6796C15.4056 10.6796 15.5176 10.2093 15.5245 10.1922C15.5245 10.1922 15.5597 10.1432 15.595 10.1239H15.6469C16.1364 10.1239 16.6892 10.1239 17.1225 9.80513C17.4173 9.58652 17.6189 9.26371 17.7088 8.87138C17.7321 8.77519 17.7493 8.66078 17.7493 8.54638C17.7493 8.39612 17.7192 8.24747 17.632 8.13131C17.4111 7.8222 16.9711 7.81651 16.4632 7.81418C16.4616 7.81418 16.2128 7.81651 16.2128 7.81651C15.5627 7.82453 15.3019 7.8222 15.1948 7.80908C15.1858 7.85645 15.1687 7.94068 15.1687 7.94068C15.1687 7.94068 14.9358 9.02003 14.9358 9.02178C14.9358 9.02178 14.3785 11.3166 14.3523 11.4247C14.92 11.4179 15.1527 11.4179 15.2506 11.4287ZM15.6822 9.51132C15.6822 9.51132 15.9298 8.43416 15.9286 8.43824L15.9366 8.383L15.9401 8.34088L16.0391 8.35109C16.0391 8.35109 16.5498 8.39495 16.5617 8.39612C16.7633 8.47409 16.8463 8.67506 16.7883 8.9374C16.7354 9.17714 16.5799 9.37869 16.3801 9.47605C16.2156 9.55854 16.014 9.56539 15.8063 9.56539H15.672L15.6822 9.51132ZM17.2239 10.4399C17.1584 10.7188 17.0832 11.2283 17.5494 11.4099C17.6981 11.4732 17.8313 11.492 17.9667 11.4851C18.1097 11.4774 18.2421 11.4057 18.3648 11.3025C18.3538 11.3449 18.3427 11.3873 18.3316 11.4299L18.3528 11.4571C18.6881 11.443 18.7922 11.443 19.1555 11.4458L19.1884 11.4207C19.2415 11.1088 19.2915 10.806 19.4293 10.2093C19.4965 9.92351 19.5636 9.64048 19.6325 9.35586L19.6217 9.32452C19.2466 9.39404 19.1463 9.40891 18.7855 9.46006L18.7581 9.48236C18.7544 9.51136 18.7506 9.5392 18.7471 9.56703C18.691 9.47638 18.6097 9.39899 18.4842 9.35076C18.3237 9.28765 17.9469 9.36897 17.6229 9.66395C17.3952 9.87454 17.2859 10.1631 17.2239 10.4399ZM18.0117 10.4569C18.092 10.1131 18.1843 9.82222 18.4233 9.82222C18.5744 9.82222 18.654 9.96169 18.6378 10.1995C18.625 10.2589 18.6111 10.3214 18.5947 10.3921C18.5708 10.4942 18.5448 10.5955 18.5196 10.6969C18.494 10.7663 18.4641 10.8318 18.4313 10.8753C18.3698 10.9625 18.2235 11.0166 18.1392 11.0166C18.1153 11.0166 17.9679 11.0166 17.9628 10.7991C17.9616 10.6908 17.9839 10.5793 18.0117 10.4569ZM22.126 9.32174L22.097 9.28866C21.7258 9.36386 21.6586 9.37581 21.3176 9.42186L21.2925 9.44693C21.2914 9.45101 21.2903 9.45728 21.2886 9.46296L21.2874 9.45728C21.0336 10.043 21.041 9.91665 20.8343 10.3778C20.8332 10.3568 20.8332 10.3437 20.832 10.3214L20.7803 9.32174L20.7478 9.28866C20.3589 9.36386 20.3497 9.37581 19.9906 9.42186L19.9627 9.44693C19.9587 9.45888 19.9587 9.472 19.9564 9.48628L19.9587 9.49138C20.0036 9.72077 19.9928 9.66962 20.0379 10.0316C20.0588 10.2093 20.0868 10.388 20.1078 10.5634C20.1432 10.8571 20.1631 11.0017 20.2063 11.4498C19.9638 11.85 19.9064 12.0014 19.6729 12.3527L19.6745 12.3562L19.5101 12.6162C19.4913 12.6436 19.4743 12.6624 19.4504 12.6704C19.4242 12.6834 19.3901 12.6857 19.3427 12.6857H19.2516L19.1162 13.136L19.5807 13.144C19.8534 13.1429 20.0247 13.0154 20.117 12.844L20.4091 12.3435H20.4044L20.4351 12.3082C20.6316 11.8853 22.126 9.32174 22.126 9.32174ZM17.2238 15.2362H17.0268L17.7561 12.8241H17.998L18.0748 12.5756L18.0822 12.8519C18.0732 13.0227 18.2076 13.1741 18.5606 13.1491H18.9688L19.1093 12.6846H18.9557C18.8673 12.6846 18.8264 12.6623 18.8315 12.6145L18.8241 12.3334H18.0681V12.3348C17.8237 12.3399 17.0938 12.3583 16.9461 12.3976C16.7672 12.4437 16.5788 12.5792 16.5788 12.5792L16.6528 12.3305H15.9457L15.7984 12.8241L15.0593 15.2731H14.9159L14.7753 15.7342H16.1837L16.1365 15.8879H16.8305L16.8765 15.7342H17.0713L17.2238 15.2362ZM16.646 13.3142C16.5327 13.3455 16.322 13.4405 16.322 13.4405L16.5094 12.8241H17.0713L16.9357 13.2732C16.9357 13.2732 16.7621 13.2834 16.646 13.3142ZM16.6568 14.1949C16.6568 14.1949 16.4803 14.217 16.3641 14.2433C16.2497 14.278 16.0352 14.3873 16.0352 14.3873L16.2287 13.7457H16.7935L16.6568 14.1949ZM16.342 15.2419H15.7784L15.9418 14.7005H16.5036L16.342 15.2419ZM17.6992 13.7457H18.5115L18.3948 14.1238H17.5717L17.4481 14.5371H18.1683L17.623 15.305C17.5848 15.3614 17.5505 15.3814 17.5125 15.3972C17.4743 15.4166 17.4242 15.4394 17.3662 15.4394H17.1664L17.0291 15.892H17.5517C17.8234 15.892 17.9838 15.7684 18.1023 15.6062L18.4763 15.0944L18.5566 15.6141C18.5736 15.7115 18.6436 15.7684 18.6909 15.7906C18.7433 15.8168 18.7973 15.8619 18.8737 15.8686C18.9556 15.8721 19.0148 15.8748 19.0541 15.8748H19.3109L19.4651 15.3682H19.3638C19.3057 15.3682 19.2055 15.3585 19.1885 15.3403C19.1714 15.3181 19.1714 15.284 19.1623 15.2321L19.0808 14.7112H18.7472L18.8935 14.5371H19.715L19.8414 14.1238H19.0808L19.1993 13.7457H19.9576L20.0982 13.2795H17.8375L17.6992 13.7457ZM10.838 15.3472L11.0277 14.7164H11.8069L11.9493 14.2473H11.1693L11.2884 13.859H12.0506L12.1918 13.4047H10.2847L10.1464 13.859H10.5796L10.4641 14.2473H10.0296L9.88564 14.7244H10.3188L10.0661 15.5589C10.032 15.6694 10.0821 15.7115 10.1139 15.7628C10.1464 15.8128 10.1793 15.8459 10.2533 15.8647C10.3297 15.8817 10.382 15.8919 10.4531 15.8919H11.3317L11.4882 15.3722L11.0988 15.4257C11.0236 15.4257 10.8153 15.4167 10.838 15.3472ZM10.9274 12.3276L10.7299 12.6845C10.6877 12.7625 10.6496 12.8109 10.6154 12.8332C10.5852 12.852 10.5255 12.8599 10.4389 12.8599H10.3359L10.1981 13.3165H10.5403C10.7049 13.3165 10.8312 13.2561 10.8916 13.2259C10.9564 13.1913 10.9735 13.2111 11.0236 13.1627L11.1392 13.0626H12.2077L12.3495 12.5872H11.5674L11.7039 12.3276H10.9274ZM12.505 15.3563C12.4867 15.3301 12.4999 15.2839 12.5277 15.1877L12.8198 14.221H13.8587C14.0102 14.2188 14.1195 14.2171 14.1906 14.212C14.267 14.204 14.35 14.1767 14.4405 14.1277C14.5339 14.0764 14.5818 14.0224 14.6221 13.9603C14.6672 13.8983 14.7394 13.7628 14.8015 13.5538L15.1686 12.3305L14.0905 12.3367C14.0905 12.3367 13.7585 12.3857 13.6123 12.4398C13.4648 12.5001 13.2541 12.6686 13.2541 12.6686L13.3514 12.3333H12.6854L11.753 15.4257C11.7199 15.5458 11.6977 15.6329 11.6926 15.6853C11.6909 15.7417 11.7637 15.7975 11.811 15.8396C11.8668 15.8817 11.9493 15.8749 12.0284 15.8817C12.1116 15.888 12.23 15.8919 12.3933 15.8919H12.9052L13.0623 15.3614L12.6041 15.4047C12.5551 15.4047 12.5197 15.3785 12.505 15.3563ZM13.0082 13.5681H14.0995L14.0301 13.7855C14.0204 13.7906 13.997 13.7748 13.886 13.7879H12.941L13.0082 13.5681ZM13.2268 12.8388H14.3273L14.2482 13.1007C14.2482 13.1007 13.7295 13.0956 13.6464 13.1109C13.2809 13.1742 13.0674 13.3695 13.0674 13.3695L13.2268 12.8388ZM14.0546 14.5137C14.0455 14.5462 14.0312 14.566 14.0113 14.5809C13.9891 14.5952 13.9533 14.6003 13.8998 14.6003H13.7443L13.7535 14.3355H13.1067L13.0804 15.6301C13.0794 15.7235 13.0884 15.7776 13.1568 15.8208C13.2252 15.8749 13.4357 15.8818 13.7192 15.8818H14.1245L14.2708 15.3972L13.918 15.4166L13.8007 15.4234C13.7846 15.4166 13.7693 15.4103 13.7523 15.3932C13.7374 15.3785 13.7124 15.3876 13.7164 15.2941L13.7192 14.9623L14.0892 14.947C14.289 14.947 14.3745 14.882 14.4473 14.82C14.5168 14.7607 14.5396 14.6925 14.5658 14.6003L14.6279 14.3065H14.1194L14.0546 14.5137Z" fill="#FEFEFE"/>
</svg>
