<svg width="24" height="24" viewBox="0 0 24 24" fill="none" xmlns="http://www.w3.org/2000/svg">
<path fill-rule="evenodd" clip-rule="evenodd" d="M3 8.5C3 6.567 4.61177 5 6.6 5H17.4C19.3882 5 21 6.567 21 8.5V15.5C21 17.433 19.3882 19 17.4 19H6.6C4.61177 19 3 17.433 3 15.5V8.5ZM4.8 11.125V15.5C4.8 16.4665 5.60589 17.25 6.6 17.25H17.4C18.3941 17.25 19.2 16.4665 19.2 15.5V11.125H4.8ZM19.2 9.375H4.8V8.5C4.8 7.5335 5.60589 6.75 6.6 6.75H17.4C18.3941 6.75 19.2 7.5335 19.2 8.5V9.375ZM6.6 14.625C6.6 14.1418 7.00294 13.75 7.5 13.75H8.4C8.89706 13.75 9.3 14.1418 9.3 14.625C9.3 15.1082 8.89706 15.5 8.4 15.5H7.5C7.00294 15.5 6.6 15.1082 6.6 14.625ZM11.1 14.625C11.1 14.1418 11.5029 13.75 12 13.75H12.9C13.3971 13.75 13.8 14.1418 13.8 14.625C13.8 15.1082 13.3971 15.5 12.9 15.5H12C11.5029 15.5 11.1 15.1082 11.1 14.625Z" fill="#6366F1"/>
</svg>
