<svg width="24" height="24" viewBox="0 0 24 24" fill="none" xmlns="http://www.w3.org/2000/svg">
<path fill-rule="evenodd" clip-rule="evenodd" d="M9.63528 8.13833L8.40835 15.867H10.3713L11.5984 8.13833H9.63528ZM6.75675 8.13833L4.88517 13.454L4.66378 12.3094L4.66394 12.3097L4.61516 12.0532C4.38865 11.5528 3.86405 10.6019 2.87346 9.7903C2.5806 9.55041 2.28538 9.34569 2 9.17081L3.70096 15.867H5.74624L8.86953 8.13833H6.75675ZM14.418 10.284C14.418 9.41016 16.3297 9.52244 17.1698 9.9969L17.4499 8.337C17.4499 8.337 16.5854 8 15.6843 8C14.71 8 12.3967 8.43668 12.3967 10.5585C12.3967 12.5554 15.1119 12.5802 15.1119 13.6286C15.1119 14.677 12.6766 14.4897 11.873 13.8283L11.5809 15.5633C11.5809 15.5633 12.4574 16 13.7969 16C15.1363 16 17.1576 15.2888 17.1576 13.3541C17.1576 11.3447 14.418 11.1575 14.418 10.284ZM22.4284 8.13833H20.8501C20.1213 8.13833 19.9439 8.7143 19.9439 8.7143L17.0164 15.867H19.0624L19.4717 14.7191H21.9673L22.1975 15.867H24L22.4284 8.13833ZM20.0374 13.1331L21.069 10.2408L21.6493 13.1331H20.0374Z" fill="#005BAC"/>
<path fill-rule="evenodd" clip-rule="evenodd" d="M4.30044 8.66753C4.30044 8.66753 4.21598 8 3.31429 8H0.038372L0 8.12545C0 8.12545 1.57467 8.42837 3.08536 9.56325C4.52905 10.6479 5 12 5 12L4.30044 8.66753Z" fill="#F6AC1D"/>
</svg>
