<svg width="24" height="24" viewBox="0 0 24 24" fill="none" xmlns="http://www.w3.org/2000/svg">
<path d="M1.49998 3.37476H22.5C23.328 3.37476 24 4.04672 24 4.87547V19.1255C24 19.9535 23.328 20.6255 22.5 20.6255H1.49998C0.671227 20.6255 0 19.9535 0 19.1256V4.87547C0 4.04672 0.671968 3.37476 1.49998 3.37476Z" fill="#94A3B8"/>
<path d="M3.87003 9.37476L1.5 14.6195H4.33725L4.68899 13.7833H5.49298L5.84472 14.6195H8.96773V13.9813L9.24601 14.6195H10.8615L11.1398 13.9678V14.6195H17.6348L18.4246 13.805L19.1641 14.6195L22.5 14.6263L20.1225 12.0118L22.5 9.37476H19.2158L18.447 10.1742L17.7308 9.37476H10.6651L10.0583 10.7285L9.43735 9.37476H6.60602V9.99128L6.29105 9.37476C6.29105 9.37476 3.87003 9.37476 3.87003 9.37476ZM4.41902 10.1195H5.80202L7.37406 13.676V10.1195H8.8891L10.1033 12.6695L11.2224 10.1195H12.7298V13.883H11.8126L11.8051 10.934L10.4678 13.883H9.64727L8.30251 10.934V13.883H6.41551L6.05777 13.0393H4.12503L3.76802 13.8823H2.75699L4.41902 10.1195ZM13.569 10.1195H17.2988L18.4395 11.3518L19.6171 10.1195H20.7578L19.0245 12.0111L20.7578 13.8808H19.5653L18.4246 12.6342L17.241 13.8808H13.569V10.1195ZM5.09181 10.7563L4.45505 12.2593H5.72783L5.09181 10.7563ZM14.4901 10.8988V11.5858H16.5248V12.3515H14.4901V13.1015H16.7723L17.8328 11.9968L16.8173 10.8981H14.4901V10.8988Z" fill="white"/>
</svg>
