<svg width="24" height="24" viewBox="0 0 24 24" fill="none" xmlns="http://www.w3.org/2000/svg">
<path d="M13.7167 19.9999C18.0473 20.0208 22 16.4335 22 12.0695C22 7.29712 18.0473 3.99841 13.7167 4H9.98969C5.60721 3.99841 2 7.29811 2 12.0695C2 16.4345 5.60721 20.0209 9.98969 19.9999H13.7167Z" fill="#0079BE"/>
<path d="M9.99941 5C6.13354 5.00121 3.00091 8.134 3 12.0005C3.00091 15.8663 6.13351 18.9988 9.99941 19C13.8662 18.9988 16.9995 15.8663 17 12.0005C16.9994 8.134 13.8662 5.00121 9.99941 5ZM5.56268 12.0005C5.56632 10.1111 6.74659 8.49995 8.41094 7.85971V16.1403C6.74659 15.5004 5.56629 13.8901 5.56268 12.0005ZM11.5873 16.1421V7.85944C13.2522 8.49813 14.4343 10.1102 14.4374 12.0005C14.4343 13.8914 13.2522 15.5022 11.5873 16.1421Z" fill="white"/>
<path d="M13.7167 19.9999C18.0473 20.0208 22 16.4335 22 12.0695C22 7.29712 18.0473 3.99841 13.7167 4H9.98969C5.60721 3.99841 2 7.29811 2 12.0695C2 16.4345 5.60721 20.0209 9.98969 19.9999H13.7167Z" fill="#94A3B8"/>
<path d="M9.99941 5C6.13354 5.00121 3.00091 8.134 3 12.0005C3.00091 15.8663 6.13351 18.9988 9.99941 19C13.8662 18.9988 16.9995 15.8663 17 12.0005C16.9994 8.134 13.8662 5.00121 9.99941 5ZM5.56268 12.0005C5.56632 10.1111 6.74659 8.49995 8.41094 7.85971V16.1403C6.74659 15.5004 5.56629 13.8901 5.56268 12.0005ZM11.5873 16.1421V7.85944C13.2522 8.49813 14.4343 10.1102 14.4374 12.0005C14.4343 13.8914 13.2522 15.5022 11.5873 16.1421Z" fill="white"/>
</svg>
