<svg width="24" height="10" viewBox="0 0 24 10" fill="none" xmlns="http://www.w3.org/2000/svg">
<g clip-path="url(#clip0_2532_4271)">
<path d="M11.3513 4.88538V7.8167H10.465V0.577635H12.8156C13.0962 0.571485 13.3751 0.623698 13.6364 0.731261C13.8976 0.838824 14.136 0.999607 14.3377 1.20433C14.5415 1.39663 14.7036 1.63246 14.8133 1.89597C14.923 2.15948 14.9776 2.44458 14.9735 2.73209C14.9794 3.02113 14.9256 3.30809 14.8158 3.57328C14.7061 3.83847 14.543 4.07563 14.3377 4.2685C13.9267 4.67975 13.4193 4.88519 12.8156 4.8848H11.3513V4.88538ZM11.3513 1.46887V3.99588H12.8376C13.0006 4.00094 13.1627 3.97027 13.3137 3.90582C13.4647 3.84137 13.6012 3.74457 13.7145 3.62159C13.8273 3.50661 13.9169 3.36909 13.978 3.21715C14.0392 3.06521 14.0707 2.90194 14.0707 2.73699C14.0707 2.57205 14.0392 2.40878 13.978 2.25684C13.9169 2.1049 13.8273 1.96738 13.7145 1.8524C13.6027 1.72683 13.4666 1.62765 13.3154 1.56143C13.1642 1.49521 13.0014 1.46347 12.8376 1.4683H11.3513V1.46887Z" fill="#5F6368"/>
<path d="M17.0158 2.7019C17.6709 2.7019 18.188 2.88558 18.5671 3.25294C18.9462 3.62029 19.1356 4.12396 19.1352 4.76394V7.81656H18.2875V7.12921H18.2489C17.8819 7.69526 17.3938 7.97829 16.7846 7.97829C16.2646 7.97829 15.8295 7.81656 15.4794 7.4931C15.3114 7.34464 15.177 7.15872 15.0862 6.94888C14.9953 6.73904 14.9502 6.51058 14.9542 6.28014C14.9542 5.76762 15.1388 5.36002 15.508 5.05736C15.8772 4.7547 16.3701 4.60298 16.9867 4.60221C17.5129 4.60221 17.9464 4.70329 18.2869 4.90545V4.69289C18.2879 4.5358 18.2556 4.38043 18.1923 4.23807C18.129 4.09571 18.0362 3.96992 17.9208 3.86981C17.6865 3.64794 17.381 3.52688 17.0654 3.53076C16.5703 3.53076 16.1785 3.74986 15.8901 4.18807L15.1095 3.67227C15.5388 3.02536 16.1743 2.7019 17.0158 2.7019ZM15.8691 6.30036C15.8686 6.41871 15.8949 6.5355 15.9461 6.64099C15.9972 6.74648 16.0716 6.83763 16.1631 6.90684C16.3591 7.06862 16.6024 7.15433 16.8518 7.14943C17.2258 7.14877 17.5843 6.99258 17.8487 6.71507C18.1423 6.42512 18.2891 6.08491 18.2891 5.69445C18.0128 5.46341 17.6274 5.34789 17.1331 5.34789C16.7731 5.34789 16.4729 5.43896 16.2325 5.6211C15.9897 5.80593 15.8691 6.03062 15.8691 6.30036Z" fill="#5F6368"/>
<path d="M24.0017 2.86377L21.0422 10H20.1273L21.2255 7.50306L19.2795 2.86377H20.2429L21.6494 6.42179H21.6687L23.0367 2.86377H24.0017Z" fill="#5F6368"/>
<path d="M7.76976 4.25357C7.77009 3.97017 7.74725 3.68726 7.70149 3.40796H3.96362V5.00965H6.1045C6.0607 5.26546 5.96797 5.50931 5.83192 5.72651C5.69587 5.94371 5.51931 6.12976 5.31289 6.27344V7.31312H6.59059C7.33872 6.58938 7.76976 5.51909 7.76976 4.25357Z" fill="#4285F4"/>
<path d="M3.96359 8.31738C5.0332 8.31738 5.93381 7.94887 6.59056 7.31351L5.31285 6.27383C4.95723 6.52682 4.49922 6.67122 3.96359 6.67122C2.92975 6.67122 2.05226 5.93998 1.73848 4.95459H0.422241V6.02604C0.752136 6.71482 1.25799 7.29383 1.88334 7.69845C2.50868 8.10306 3.2289 8.31735 3.96359 8.31738Z" fill="#34A853"/>
<path d="M1.73841 4.95458C1.57252 4.43823 1.57252 3.87906 1.73841 3.36271V2.29126H0.422172C0.144654 2.87068 0.00012207 3.51017 0.00012207 4.15864C0.00012207 4.80712 0.144654 5.4466 0.422172 6.02603L1.73841 4.95458Z" fill="#FBBC04"/>
<path d="M3.96359 1.64619C4.52883 1.6365 5.075 1.86058 5.48406 2.27L6.61533 1.08303C5.89798 0.376091 4.94766 -0.012031 3.96359 2.87106e-05C3.2289 6.38433e-05 2.50868 0.21435 1.88334 0.618964C1.25799 1.02358 0.752136 1.60259 0.422241 2.29137L1.73848 3.36282C2.05226 2.37743 2.92975 1.64619 3.96359 1.64619Z" fill="#EA4335"/>
</g>
<defs>
<clipPath id="clip0_2532_4271">
<rect width="24" height="10" fill="white"/>
</clipPath>
</defs>
</svg>
