<svg width="45" height="10" viewBox="0 0 45 10" fill="none" xmlns="http://www.w3.org/2000/svg">
<path fill-rule="evenodd" clip-rule="evenodd" d="M7.91697 -0.00377546H5.69954C5.70708 1.78963 4.85635 3.47948 3.40851 4.54715L2.53097 5.20078L5.92789 9.81555H8.72657L5.59763 5.5689C7.08977 4.09567 7.92533 2.08804 7.91697 -0.00377546Z" fill="black"/>
<path fill-rule="evenodd" clip-rule="evenodd" d="M0.00170899 9.81554H2.26448V-0.00379056H0.00170899V9.81554Z" fill="black"/>
<path fill-rule="evenodd" clip-rule="evenodd" d="M9.39437 9.80812H11.5296V5.13835e-05H9.39437V9.80812Z" fill="black"/>
<path fill-rule="evenodd" clip-rule="evenodd" d="M30.2596 2.84339C29.4444 2.84339 28.6727 3.09488 28.1576 3.78176V3.02543H26.1235V9.808H28.1821V6.24218C28.1821 5.20996 28.8765 4.70512 29.7143 4.70512C30.6124 4.70512 31.1276 5.23812 31.1276 6.22716V9.808H33.1673V5.49148C33.1673 3.91313 31.9049 2.83963 30.2596 2.83963L30.2596 2.84339Z" fill="black"/>
<path fill-rule="evenodd" clip-rule="evenodd" d="M17.981 3.02638V3.46012C16.7042 2.59398 15.0144 2.63666 13.7834 3.56616C12.5523 4.49564 12.0551 6.10418 12.5482 7.56204C13.0413 9.0199 14.4145 10.0012 15.9595 9.99987C16.68 10.0041 17.3848 9.79067 17.981 9.38776V9.8215H20.0233V3.02639L17.981 3.02638ZM16.1251 8.16574C15.1308 8.19095 14.3038 7.40956 14.277 6.41956C14.3314 5.44232 15.143 4.67763 16.126 4.67763C17.109 4.67763 17.9207 5.44234 17.975 6.41956C17.9483 7.41031 17.1201 8.19201 16.1251 8.16574H16.1251Z" fill="black"/>
<path fill-rule="evenodd" clip-rule="evenodd" d="M23.1781 3.91372V3.0304H21.0915V9.80817H23.1818V6.64433C23.1818 5.57534 24.3438 5.00147 25.1517 5.00147H25.1743V3.0304C24.3476 3.0304 23.5867 3.38298 23.1781 3.91372Z" fill="black"/>
<path fill-rule="evenodd" clip-rule="evenodd" d="M39.5127 3.02625V3.45999C38.0145 2.44367 35.9908 2.69664 34.7914 4.05018C33.592 5.4037 33.592 7.43452 34.7914 8.78806C35.9908 10.1416 38.0145 10.3946 39.5127 9.37825V9.81198H41.5531V3.02625H39.5127ZM37.6547 8.16561C36.6603 8.19084 35.8334 7.40943 35.8066 6.41943C35.8609 5.44219 36.6726 4.67748 37.6556 4.67748C38.6386 4.67748 39.4503 5.44219 39.5046 6.41943C39.4779 7.41018 38.6497 8.19188 37.6547 8.16561H37.6547Z" fill="black"/>
<path fill-rule="evenodd" clip-rule="evenodd" d="M43.7176 7.40928C43.0085 7.40823 42.4329 7.97988 42.4322 8.68589C42.4316 9.39188 43.006 9.96465 43.7151 9.965C44.4241 9.96534 44.9991 9.39312 44.9991 8.68714C44.9996 8.3484 44.8648 8.02337 44.6244 7.78367C44.384 7.54397 44.0578 7.40928 43.7176 7.40928H43.7176Z" fill="black"/>
</svg>
