<svg width="24" height="24" viewBox="0 0 24 24" fill="none" xmlns="http://www.w3.org/2000/svg">
<path d="M9.2613 20.3898L9.56802 18.4083L8.88478 18.3922H5.62219L7.88952 3.7707C7.89656 3.72656 7.91943 3.6854 7.95286 3.65617C7.98629 3.62694 8.0291 3.61084 8.07368 3.61084H13.5749C15.4011 3.61084 16.6615 3.99736 17.3195 4.76026C17.628 5.11815 17.8245 5.49214 17.9195 5.90371C18.0192 6.33556 18.021 6.85152 17.9236 7.48081L17.9166 7.52674V7.92996L18.225 8.10771C18.4849 8.24788 18.6913 8.40833 18.8496 8.59205C19.1136 8.89805 19.2842 9.28695 19.3564 9.74803C19.4308 10.2222 19.4062 10.7865 19.2842 11.4253C19.1435 12.1602 18.9159 12.8002 18.6086 13.3239C18.3259 13.8065 17.9658 14.2067 17.5383 14.5169C17.1301 14.8116 16.6451 15.0352 16.0967 15.1784C15.5654 15.3192 14.9595 15.3901 14.295 15.3901H13.8669C13.5608 15.3901 13.2634 15.5023 13.03 15.7033C12.796 15.9085 12.6412 16.1888 12.5937 16.4954L12.5614 16.6738L12.0195 20.1662L11.9949 20.2944C11.9884 20.335 11.9773 20.3552 11.9609 20.369C11.9462 20.3815 11.9251 20.3898 11.9046 20.3898H9.2613Z" fill="#253B80"/>
<path d="M18.5171 7.57324C18.5007 7.68001 18.4819 7.78917 18.4608 7.90131C17.7353 11.6896 15.2534 12.9982 12.0834 12.9982H10.4694C10.0818 12.9982 9.75512 13.2845 9.69471 13.6735L8.86836 19.0036L8.63436 20.5145C8.59506 20.7698 8.7886 21 9.04196 21H11.9046C12.2435 21 12.5315 20.7495 12.5849 20.4095L12.613 20.2616L13.152 16.7829L13.1866 16.592C13.2394 16.2508 13.5279 16.0003 13.8669 16.0003H14.2951C17.0685 16.0003 19.2397 14.8551 19.8742 11.541C20.1393 10.1566 20.0021 9.00062 19.3007 8.18762C19.0883 7.94246 18.825 7.73906 18.5171 7.57324Z" fill="#179BD7"/>
<path d="M17.7582 7.26533C17.6474 7.23252 17.533 7.2027 17.4157 7.17585C17.2978 7.14961 17.177 7.12635 17.0527 7.10607C16.6175 7.03449 16.1407 7.00049 15.6299 7.00049H11.3181C11.2119 7.00049 11.111 7.02494 11.0207 7.06908C10.8219 7.16631 10.6741 7.35778 10.6383 7.5922L9.72109 13.5009L9.6947 13.6733C9.75511 13.2844 10.0818 12.9981 10.4694 12.9981H12.0834C15.2534 12.9981 17.7353 11.6888 18.4608 7.90117C18.4825 7.78904 18.5007 7.67988 18.5171 7.57311C18.3335 7.47409 18.1347 7.38939 17.9207 7.31722C17.8679 7.29933 17.8133 7.28203 17.7582 7.26533Z" fill="#222D65"/>
<path d="M10.6384 7.59231C10.6742 7.35789 10.822 7.16642 11.0208 7.06979C11.1117 7.02565 11.212 7.00119 11.3181 7.00119H15.6299C16.1408 7.00119 16.6176 7.03519 17.0527 7.10677C17.1771 7.12705 17.2979 7.15031 17.4158 7.17656C17.5331 7.2034 17.6474 7.23322 17.7583 7.26603C17.8134 7.28273 17.8679 7.30003 17.9213 7.31733C18.1354 7.3895 18.3342 7.4748 18.5178 7.57322C18.7336 6.17328 18.516 5.2201 17.7718 4.35699C16.9513 3.4068 15.4704 3 13.5755 3H8.07432C7.68724 3 7.35705 3.28631 7.29723 3.67581L5.00586 18.4477C4.9607 18.7399 5.18239 19.0036 5.47211 19.0036H8.86841L9.72115 13.501L10.6384 7.59231Z" fill="#253B80"/>
</svg>
