<svg width="24" height="24" viewBox="0 0 24 24" fill="none" xmlns="http://www.w3.org/2000/svg">
<path fill-rule="evenodd" clip-rule="evenodd" d="M11.1795 8.36044C11.1795 7.58901 11.8346 7.29231 12.9197 7.29231C14.4756 7.29231 16.4409 7.74725 17.9969 8.55824V3.90989C16.2976 3.25714 14.6189 3 12.9197 3C8.76378 3 6 5.0967 6 8.5978C6 14.0571 13.7795 13.1868 13.7795 15.5407C13.7795 16.4505 12.9606 16.7473 11.8142 16.7473C10.115 16.7473 7.94488 16.0747 6.2252 15.1648V19.8725C8.12913 20.6637 10.0535 21 11.8142 21C16.0724 21 19 18.9626 19 15.422C18.9795 9.52747 11.1795 10.5758 11.1795 8.36044Z" fill="#635BFF"/>
</svg>
