<svg width="24" height="24" viewBox="0 0 24 24" fill="none" xmlns="http://www.w3.org/2000/svg">
<path d="M20.18 13.1178V19.2H21.089V21H2.909V19.2H3.818V13.1178C3.25839 12.748 2.79966 12.2471 2.48251 11.6596C2.16537 11.0721 1.99963 10.4161 2 9.75C2 9.0057 2.20362 8.2884 2.5754 7.6773L5.0406 3.45C5.12038 3.31319 5.23513 3.19957 5.37331 3.12058C5.51149 3.04159 5.66824 3 5.82779 3H18.1711C18.3306 3 18.4874 3.04159 18.6256 3.12058C18.7638 3.19957 18.8785 3.31319 18.9583 3.45L21.4144 7.6638C21.9567 8.55558 22.131 9.61998 21.9011 10.6357C21.6712 11.6515 21.0548 12.5404 20.18 13.1178ZM18.362 13.7748C17.737 13.8442 17.1042 13.7699 16.513 13.5576C15.9218 13.3453 15.388 13.0008 14.9532 12.5508C14.5716 12.946 14.1131 13.2605 13.6054 13.4753C13.0976 13.6902 12.5512 13.8009 11.999 13.8009C11.4469 13.8012 10.9006 13.6907 10.3928 13.4762C9.88507 13.2616 9.42649 12.9474 9.04474 12.5526C8.6099 13.0024 8.07609 13.3468 7.48486 13.5589C6.89362 13.771 6.26092 13.8452 5.636 13.7757V19.2H18.362V13.7757V13.7748ZM6.3532 4.8L4.1416 8.5917C3.92669 9.11743 3.92024 9.70412 4.12354 10.2344C4.32684 10.7646 4.72489 11.1993 5.23802 11.4514C5.75115 11.7034 6.34151 11.7544 6.89094 11.5939C7.44037 11.4335 7.90834 11.0735 8.20119 10.5861C8.5057 9.8328 9.58287 9.8328 9.88829 10.5861C10.0567 11.0041 10.3479 11.3624 10.7241 11.6149C11.1004 11.8673 11.5445 12.0023 11.999 12.0023C12.4535 12.0023 12.8976 11.8673 13.2738 11.6149C13.6501 11.3624 13.9412 11.0041 14.1097 10.5861C14.4142 9.8328 15.4914 9.8328 15.7968 10.5861C15.9148 10.8736 16.0915 11.1338 16.3159 11.3504C16.5404 11.5671 16.8077 11.7354 17.101 11.8448C17.3943 11.9542 17.7072 12.0023 18.0202 11.9862C18.3332 11.9701 18.6395 11.89 18.9197 11.7511C19.2 11.6121 19.4482 11.4173 19.6487 11.1788C19.8492 10.9403 19.9978 10.6633 20.085 10.3652C20.1722 10.0671 20.1961 9.75444 20.1554 9.44675C20.1146 9.13906 20.0101 8.84304 19.8482 8.5773L17.6439 4.8H6.3541H6.3532Z" fill="#0F172A"/>
</svg>
