<svg xmlns="http://www.w3.org/2000/svg" version="1.1" xmlns:xlink="http://www.w3.org/1999/xlink" xmlns:svgjs="http://svgjs.com/svgjs" width="1000" height="1000"><rect width="1000" height="1000" rx="500" ry="500" fill="#000000"></rect><g transform="matrix(10.95890410958904,0,0,10.95890410958904,99.84560959061531,274.2211258113384)"><svg xmlns="http://www.w3.org/2000/svg" version="1.1" xmlns:xlink="http://www.w3.org/1999/xlink" xmlns:svgjs="http://svgjs.com/svgjs" width="73" height="41"><svg width="73" height="41" viewBox="0 0 73 41" fill="none" xmlns="http://www.w3.org/2000/svg">
<path d="M20.3146 40.7811C16.2961 40.7811 12.8372 39.9672 9.93785 38.3395C7.05542 36.6948 4.83426 34.3719 3.27436 31.3708C1.71446 28.3527 0.934509 24.7836 0.934509 20.6634C0.934509 16.645 1.71446 13.1183 3.27436 10.0833C4.83426 7.04823 7.02999 4.68295 9.86155 2.9874C12.7101 1.29186 16.0503 0.444092 19.8822 0.444092C22.4594 0.444092 24.8586 0.8595 27.0798 1.69032C29.3179 2.50418 31.2678 3.73345 32.9294 5.37812C34.608 7.0228 35.9136 9.09137 36.8461 11.5838C37.7787 14.0593 38.2449 16.9587 38.2449 20.282V23.2576H5.25815V16.5433H28.0463C28.0463 14.9834 27.7071 13.6015 27.0289 12.3977C26.3507 11.1938 25.4097 10.2528 24.2058 9.57459C23.019 8.87942 21.6371 8.53184 20.0602 8.53184C18.4156 8.53184 16.9574 8.91333 15.6857 9.67633C14.431 10.4224 13.4476 11.4312 12.7355 12.7029C12.0234 13.9576 11.6588 15.3564 11.6419 16.8993V23.2831C11.6419 25.216 11.9979 26.8861 12.7101 28.2934C13.4391 29.7007 14.465 30.7858 15.7875 31.5488C17.11 32.3118 18.6784 32.6933 20.4926 32.6933C21.6964 32.6933 22.7985 32.5238 23.7989 32.1847C24.7993 31.8456 25.6555 31.3369 26.3677 30.6587C27.0798 29.9805 27.6224 29.1496 27.9954 28.1662L38.0161 28.8275C37.5074 31.2352 36.4646 33.3376 34.8878 35.1349C33.3279 36.9152 31.3102 38.3056 28.8347 39.306C26.3761 40.2894 23.5361 40.7811 20.3146 40.7811Z" fill="white"></path>
<path d="M52.7164 40.7811C56.7349 40.7811 60.1938 39.9672 63.0931 38.3395C65.9756 36.6948 68.1967 34.3719 69.7566 31.3708C71.3165 28.3527 72.0965 24.7836 72.0965 20.6634C72.0965 16.645 71.3165 13.1183 69.7566 10.0833C68.1967 7.04823 66.001 4.68295 63.1694 2.9874C60.3209 1.29186 56.9807 0.444092 53.1488 0.444092C50.5716 0.444092 48.1724 0.8595 45.9512 1.69032C43.7131 2.50418 41.7632 3.73345 40.1016 5.37812C38.423 7.0228 37.1174 9.09137 36.1849 11.5838C35.2523 14.0593 34.786 16.9587 34.786 20.282V23.2576H67.7728V16.5433H44.9847C44.9847 14.9834 45.3238 13.6015 46.0021 12.3977C46.6803 11.1938 47.6213 10.2528 48.8251 9.57459C50.012 8.87942 51.3939 8.53184 52.9707 8.53184C54.6154 8.53184 56.0736 8.91333 57.3453 9.67633C58.6 10.4224 59.5834 11.4312 60.2955 12.7029C61.0076 13.9576 61.3722 15.3564 61.3891 16.8993V23.2831C61.3891 25.216 61.0331 26.8861 60.3209 28.2934C59.5918 29.7007 58.566 30.7858 57.2435 31.5488C55.921 32.3118 54.3526 32.6933 52.5384 32.6933C51.3346 32.6933 50.2324 32.5238 49.2321 32.1847C48.2317 31.8456 47.3755 31.3369 46.6633 30.6587C45.9512 29.9805 45.4086 29.1496 45.0356 28.1662L35.0149 28.8275C35.5236 31.2352 36.5664 33.3376 38.1432 35.1349C39.7031 36.9152 41.7208 38.3056 44.1963 39.306C46.6549 40.2894 49.4949 40.7811 52.7164 40.7811Z" fill="white"></path>
</svg></svg></g></svg>