<svg width="24" height="24" viewBox="0 0 24 24" fill="none" xmlns="http://www.w3.org/2000/svg">
<g clip-path="url(#clip0_2522_4123)">
<path d="M11.7692 2.50795C11.8546 2.30263 12.1454 2.30263 12.2308 2.50795L14.5115 7.99131C14.7635 8.59723 15.3333 9.01122 15.9874 9.06366L21.9072 9.53825C22.1289 9.55602 22.2187 9.83264 22.0499 9.97731L17.5396 13.8408C17.0413 14.2677 16.8236 14.9376 16.9759 15.5759L18.3538 21.3526C18.4054 21.5689 18.1701 21.7398 17.9803 21.6239L12.9122 18.5283C12.3522 18.1863 11.6478 18.1863 11.0878 18.5283L6.01967 21.6239C5.8299 21.7398 5.59459 21.5689 5.64618 21.3526L7.02413 15.5759C7.17639 14.9376 6.95874 14.2677 6.46036 13.8408L1.95014 9.97731C1.78125 9.83264 1.87114 9.55602 2.0928 9.53825L8.01255 9.06366C8.66668 9.01122 9.2365 8.59722 9.48851 7.99131L8.79602 7.70329L9.48851 7.99131L11.7692 2.50795Z" stroke="#0F172A" stroke-width="1.5"/>
</g>
<defs>
<clipPath id="clip0_2522_4123">
<rect width="24" height="24" fill="white"/>
</clipPath>
</defs>
</svg>
