<svg width="24" height="24" viewBox="0 0 24 24" fill="none" xmlns="http://www.w3.org/2000/svg">
<path fill-rule="evenodd" clip-rule="evenodd" d="M5.6985 19.4325C5.31273 19.1191 5.25409 18.5523 5.56753 18.1665L17.4325 3.56349C17.7459 3.17772 18.3127 3.11908 18.6985 3.43252C19.0843 3.74596 19.1429 4.31279 18.8295 4.69856L6.96454 19.3016C6.6511 19.6873 6.08427 19.746 5.6985 19.4325Z" fill="#0F172A"/>
<path fill-rule="evenodd" clip-rule="evenodd" d="M7.99998 4.9001C6.84018 4.9001 5.89998 5.8403 5.89998 7.0001C5.89998 8.1599 6.84018 9.1001 7.99998 9.1001C9.15977 9.1001 10.1 8.1599 10.1 7.0001C10.1 5.8403 9.15977 4.9001 7.99998 4.9001ZM4.09998 7.0001C4.09998 4.84619 5.84607 3.1001 7.99998 3.1001C10.1539 3.1001 11.9 4.84619 11.9 7.0001C11.9 9.15401 10.1539 10.9001 7.99998 10.9001C5.84607 10.9001 4.09998 9.15401 4.09998 7.0001Z" fill="#0F172A"/>
<path fill-rule="evenodd" clip-rule="evenodd" d="M16 14.9001C14.8402 14.9001 13.9 15.8403 13.9 17.0001C13.9 18.1599 14.8402 19.1001 16 19.1001C17.1598 19.1001 18.1 18.1599 18.1 17.0001C18.1 15.8403 17.1598 14.9001 16 14.9001ZM12.1 17.0001C12.1 14.8462 13.8461 13.1001 16 13.1001C18.1539 13.1001 19.9 14.8462 19.9 17.0001C19.9 19.154 18.1539 20.9001 16 20.9001C13.8461 20.9001 12.1 19.154 12.1 17.0001Z" fill="#0F172A"/>
</svg>
